<svg width="394" height="59" viewBox="0 0 394 59" fill="none" xmlns="http://www.w3.org/2000/svg">
<path d="M25.9049 2.03007L18.8212 17.1194L2.97239 19.5469C0.130227 19.9799 -1.00881 23.6611 1.0523 25.7695L12.5186 37.5081L9.80658 54.0904C9.31843 57.0878 12.3233 59.3329 14.84 57.9311L29.0183 50.1016L43.1965 57.9311C45.7132 59.3215 48.7181 57.0878 48.23 54.0904L45.518 37.5081L56.9842 25.7695C59.0454 23.6611 57.9063 19.9799 55.0642 19.5469L39.2153 17.1194L32.1316 2.03007C30.8624 -0.659567 27.185 -0.693757 25.9049 2.03007V2.03007Z" fill="black"/>
<path d="M109.669 2.03007L102.585 17.1194L86.7363 19.5469C83.8941 19.9799 82.7551 23.6611 84.8162 25.7695L96.2825 37.5081L93.5705 54.0904C93.0823 57.0878 96.0872 59.3329 98.6039 57.9311L112.782 50.1016L126.96 57.9311C129.477 59.3215 132.482 57.0878 131.994 54.0904L129.282 37.5081L140.748 25.7695C142.809 23.6611 141.67 19.9799 138.828 19.5469L122.979 17.1194L115.896 2.03007C114.626 -0.659567 110.949 -0.693757 109.669 2.03007V2.03007Z" fill="black"/>
<path d="M193.432 2.03007L186.349 17.1194L170.5 19.5469C167.658 19.9799 166.519 23.6611 168.58 25.7695L180.046 37.5081L177.334 54.0904C176.846 57.0878 179.851 59.3329 182.367 57.9311L196.546 50.1016L210.724 57.9311C213.241 59.3215 216.245 57.0878 215.757 54.0904L213.045 37.5081L224.512 25.7695C226.573 23.6611 225.434 19.9799 222.592 19.5469L206.743 17.1194L199.659 2.03007C198.39 -0.659567 194.712 -0.693757 193.432 2.03007V2.03007Z" fill="black"/>
<path d="M277.196 2.03007L270.112 17.1194L254.264 19.5469C251.421 19.9799 250.282 23.6611 252.344 25.7695L263.81 37.5081L261.098 54.0904C260.61 57.0878 263.615 59.3329 266.131 57.9311L280.31 50.1016L294.488 57.9311C297.005 59.3215 300.009 57.0878 299.521 54.0904L296.809 37.5081L308.276 25.7695C310.337 23.6611 309.198 19.9799 306.355 19.5469L290.507 17.1194L283.423 2.03007C282.154 -0.659567 278.476 -0.693757 277.196 2.03007V2.03007Z" fill="black"/>
<path d="M390.981 19.7617L374.884 17.3075L367.69 2.05238C366.401 -0.666816 362.666 -0.701382 361.366 2.05238L354.171 17.3075L338.074 19.7617C335.187 20.1995 334.031 23.9212 336.124 26.0527L347.77 37.9204L345.015 54.6849C344.519 57.7152 347.571 59.9851 350.127 58.5678L364.528 50.6522L378.928 58.5678C381.484 59.9735 384.536 57.7152 384.04 54.6849L381.286 37.9204L392.931 26.0527C395.025 23.9212 393.868 20.1995 390.981 19.7617V19.7617ZM375.611 35.9847L378.223 51.9312L364.528 44.4073L350.833 51.9312L353.444 35.9847L342.36 24.6931L357.675 22.3657L364.528 7.84795L371.381 22.3657L386.695 24.6931L375.611 35.9847Z" fill="black"/>
</svg>
